<?xml version="1.0" encoding="UTF-8" standalone="no"?>
<!-- Created with Inkscape (http://www.inkscape.org/) -->

<svg
   width="315"
   height="315"
   viewBox="0 0 83.343748 83.34375"
   version="1.1"
   id="svg1"
   xmlns="http://www.w3.org/2000/svg"
   xmlns:svg="http://www.w3.org/2000/svg">
  <defs
     id="defs1" />
  <g
     id="layer1">
    <ellipse
       style="fill:#ff0000;stroke-width:0.264583"
       id="path1"
       cx="21.40951"
       cy="29.426685"
       rx="11.205829"
       ry="10.112577" />
    <ellipse
       style="fill:#ff0000;stroke-width:0.264583"
       id="path2"
       cx="57.395706"
       cy="36.532822"
       rx="8.7460117"
       ry="15.214417" />
    <path
       style="fill:#000000;fill-opacity:1;stroke-width:0.264583"
       id="path3"
       d="m 24.59816,35.712884 -4.130247,-0.873219 -4.201182,-0.414156 -0.445836,-4.197937 -0.90435,-4.123543 3.854704,-1.721249 3.642262,-2.134333 2.828175,3.134146 3.155393,2.804452 -2.106797,3.658259 z" />
    <ellipse
       style="fill:#000000;fill-opacity:1;stroke-width:0.264583"
       id="path4"
       cx="56.66687"
       cy="42.819019"
       rx="2.9153376"
       ry="6.9239264" />
    <ellipse
       style="fill:#000000;fill-opacity:1;stroke-width:0.264583"
       id="path5"
       cx="56.02914"
       cy="43.91227"
       rx="0.8199386"
       ry="0.1822086" />
    <g
       id="g5"
       style="fill:#800000;fill-opacity:1">
      <path
         id="path11"
         style="fill:#800000;fill-rule:evenodd;stroke:none;stroke-linejoin:round"
         d="m 15.869849,46.329722 48.172077,14.138644 v 6.995906 L 15.869849,48.063336 Z"
         points="64.041926,60.468366 64.041926,67.464272 15.869849,48.063336 15.869849,46.329722 " />
      <path
         id="path6"
         style="fill:#800000;fill-rule:evenodd;stroke:none;stroke-linejoin:round"
         d="m 11.296932,46.645399 v 1.851106 l 4.572917,-0.433169 v -1.733614 z"
         points="11.296932,48.496505 15.869849,48.063336 15.869849,46.329722 11.296932,46.645399 " />
      <path
         id="path10"
         style="fill:#800000;fill-rule:evenodd;stroke:none;stroke-linejoin:round"
         d="M 11.296932,48.496505 57.395706,76.345399 64.041926,67.464272 15.869849,48.063336 Z"
         points="57.395706,76.345399 64.041926,67.464272 15.869849,48.063336 11.296932,48.496505 " />
      <path
         id="path7"
         style="fill:#800000;fill-rule:evenodd;stroke:none;stroke-linejoin:round"
         d="M 11.296932,46.645399 57.395706,66.940585 64.041926,60.468366 15.869849,46.329722 Z"
         points="57.395706,66.940585 64.041926,60.468366 15.869849,46.329722 11.296932,46.645399 " />
      <path
         id="path9"
         style="fill:#800000;fill-rule:evenodd;stroke:none;stroke-linejoin:round"
         d="m 57.395706,66.940585 v 9.404814 l 6.64622,-8.881127 v -6.995906 z"
         points="57.395706,76.345399 64.041926,67.464272 64.041926,60.468366 57.395706,66.940585 " />
      <path
         id="path8"
         style="fill:#800000;fill-rule:evenodd;stroke:none;stroke-linejoin:round;fill-opacity:1"
         d="m 11.296932,46.645399 46.098774,20.295186 v 9.404814 L 11.296932,48.496505 Z"
         points="57.395706,66.940585 57.395706,76.345399 11.296932,48.496505 11.296932,46.645399 " />
    </g>
    <path
       style="fill:none;fill-rule:evenodd;stroke:#000000;stroke-width:0.264583"
       id="path12"
       d="m 38.992638,43.183434 c -0.228391,0.127899 -0.285086,-0.244766 -0.212577,-0.379602 0.196494,-0.365395 0.713462,-0.287233 0.971779,-0.04555 0.462067,0.432309 0.32056,1.176582 -0.121471,1.563957 -0.6487,0.568487 -1.646674,0.356781 -2.156136,-0.288495 -0.679031,-0.860052 -0.394348,-2.119331 0.45552,-2.748314 1.069471,-0.79151 2.593231,-0.432636 3.340491,0.622543 0.905032,1.277964 0.471345,3.067838 -0.789567,3.93267 -1.485941,1.019175 -3.542884,0.510318 -4.524848,-0.956591 -1.133716,-1.693606 -0.549469,-4.018224 1.123616,-5.117026 1.901064,-1.248528 4.49377,-0.588743 5.709203,1.290639 1.363532,2.108384 0.628107,4.969468 -1.457663,6.301382 -2.315601,1.478677 -5.445278,0.667538 -6.89356,-1.624687" />
    <path
       style="fill:#000000;fill-opacity:1;stroke-width:0.264583"
       id="path13"
       d="m 13.369901,17.483206 c -0.238309,-1.097772 -0.383378,-2.216501 -0.703175,-3.294281 -0.139159,-0.459081 -0.250046,-0.933351 -0.45323,-1.370622 -0.171608,-0.369316 -0.400061,-0.720535 -0.605042,-1.071832 -0.29245,-0.551377 -0.769836,-0.962687 -1.136824,-1.456496 -0.148394,-0.200884 -0.269061,-0.4197449 -0.398085,-0.6330414 0,0 -3.359579,1.9534214 -3.359579,1.9534214 v 0 c 0.138058,0.218018 0.2722169,0.439106 0.4298337,0.643919 0.3459199,0.501161 0.8423547,0.879306 1.1678126,1.400414 0.4408686,0.73396 0.8626218,1.483977 1.0823204,2.318487 0.2984246,1.082038 0.5788731,2.189278 0.5152747,3.321855 z" />
    <path
       style="fill:#000000;fill-opacity:1;stroke-width:0.264583"
       id="path14"
       d="m 19.965988,16.428474 c -0.189689,-1.474648 0.04055,-2.972514 0.235867,-4.435495 0.187552,-1.476647 0.433962,-2.9463908 0.582644,-4.4277963 9.26e-4,-0.6060723 -0.02075,-1.292366 -0.367295,-1.8208315 -0.06192,-0.094416 -0.14565,-0.1725626 -0.218475,-0.258844 C 19.714813,5.0276566 19.144699,4.7843434 18.510143,4.621118 17.766408,4.409709 17.032955,4.1639691 16.296416,3.9281351 15.71128,3.7229174 16.000371,3.8258752 15.429085,3.6194298 c 0,0 -3.135707,2.1178676 -3.135707,2.1178676 v 0 c 0.582374,0.2054434 0.288072,0.1043416 0.882984,0.3030757 0.152405,0.056389 0.304809,0.1127774 0.457214,0.1691659 0.138442,0.044295 0.27854,0.083719 0.415328,0.1328856 0.431957,0.1552612 0.839887,0.3664524 1.293338,0.4604121 0.565763,0.1460592 1.10361,0.2809552 1.552348,0.685129 0.477653,0.4766614 0.513934,1.1284907 0.509968,1.7706811 -0.04795,1.4337092 -0.145168,2.8654892 -0.352032,4.2862362 -0.210938,1.552255 -0.482236,3.097144 -0.576797,4.661967 z" />
    <path
       style="fill:#000000;fill-opacity:1;stroke-width:0.264583"
       id="path15"
       d="m 21.052269,18.272868 c 1.708896,0.330286 1.726484,-0.360413 4.09615,-2.046585 0.141975,-0.101025 0.110445,-0.330552 0.163137,-0.496644 0.06773,-0.213495 0.132075,-0.428049 0.198113,-0.642074 0.374677,-1.32787 0.773509,-2.648467 1.088798,-3.992048 0.202316,-0.946497 0.41276,-1.8908849 0.618593,-2.8367383 0.126233,-0.7276666 0.167836,-1.4647204 0.182676,-2.2018098 0.0019,-0.4201547 0.01156,-0.840218 0.01974,-1.2602824 0,0 -3.448122,1.7571767 -3.448122,1.7571767 v 0 c 0.0087,0.412133 0.01836,0.8244978 0.0052,1.2366681 -0.02093,0.7129168 -0.05013,1.4287645 -0.188121,2.1305168 -0.170003,0.9278559 -0.367324,1.8506619 -0.528134,2.7802759 -0.306301,1.326654 -0.647531,2.645456 -1.084762,3.93585 -0.09466,0.210707 -0.169542,0.431465 -0.283973,0.632122 -0.08949,0.15693 -0.48774,0.51104 -0.324191,0.434309 1.086714,-0.509844 2.084042,-1.192508 3.143411,-1.756977 0.05235,-0.02789 -0.05442,0.118058 -0.109392,0.140345 -0.02226,0.009 -0.255721,-0.05211 -0.291563,-0.06104 z" />
    <path
       style="fill:#000000;fill-opacity:1;stroke-width:0.264583"
       id="path16"
       d="m 55.390406,18.035145 c -0.402047,-0.547119 -0.729657,-1.149613 -1.180076,-1.657478 -0.315473,-0.368324 -0.745299,-0.597595 -1.124198,-0.888811 -0.283321,-0.217757 -0.297831,-0.247793 -0.564547,-0.507012 -0.712171,-0.755391 -1.245352,-1.628774 -1.618758,-2.592881 -0.313891,-0.854668 -0.569785,-1.73062 -0.751925,-2.6227115 -0.0063,-0.4477018 0.280297,-0.7088249 0.600705,-0.9728007 0,0 -3.550801,1.4768522 -3.550801,1.4768522 v 0 c -0.312438,0.393859 -0.518348,0.78693 -0.411221,1.308068 0.239665,0.892812 0.507606,1.77891 0.834954,2.643797 0.120227,0.282406 0.300519,0.724214 0.446783,0.990727 0.340551,0.620527 0.798624,1.17109 1.204767,1.747509 0.216477,0.243184 0.321633,0.380538 0.567696,0.58657 0.349297,0.292474 0.790223,0.461443 1.093255,0.811469 0.43451,0.481534 0.794637,1.054113 1.044848,1.652262 z" />
    <path
       style="fill:#000000;fill-opacity:1;stroke-width:0.264583"
       id="path17"
       d="m 61.154346,17.925037 c -0.141052,-1.149751 -0.134252,-2.313736 -0.117602,-3.470282 -0.01376,-0.922582 0.137192,-1.848252 -0.01198,-2.763737 C 60.848221,10.967369 60.507456,10.301946 60.20056,9.6279059 59.824103,8.7908139 59.624787,7.9139231 59.504108,7.0093606 59.446646,6.2475038 59.40858,5.4591288 59.626531,4.7156502 c 0.09997,-0.3410225 0.314632,-0.7772966 0.463066,-1.0997488 0.229687,-0.3930338 0.410935,-0.8180401 0.694655,-1.1779371 0.120656,-0.1530501 0.263928,-0.2868391 0.39419,-0.4318005 0,0 -3.560715,1.5110048 -3.560715,1.5110048 v 0 c -0.392401,0.4994037 -0.656119,1.0734263 -0.910135,1.6532776 -0.154421,0.3907369 -0.311862,0.7546776 -0.414927,1.1647344 -0.197311,0.7850193 -0.159317,1.6024159 -0.09339,2.4012138 0.03647,0.4816343 0.03002,0.6222818 0.12423,1.0765568 0.120137,0.5792638 0.376891,1.1162618 0.571831,1.6717498 0.267049,0.659046 0.562975,1.313173 0.732575,2.005445 0.135792,0.86939 0.09421,1.75576 0.135358,2.632534 0.01749,1.196813 0.01675,2.399326 -0.117604,3.590126 z" />
    <path
       style="fill:#000000;fill-opacity:1;stroke-width:0.264583"
       id="path18"
       d="m 61.102059,20.827394 c 1.071433,-0.275853 2.103086,-0.697452 3.098456,-1.177008 1.625008,-0.856428 1.264791,-0.657979 4.155985,-2.380166 0.536634,-0.319654 0.869866,-0.769469 1.141209,-1.31448 0.251378,-0.815835 0.34952,-1.67 0.447331,-2.515502 0.07304,-0.862196 0.06159,-1.72973 0.07422,-2.59473 C 70.001822,9.9367079 69.765356,9.0542307 69.521842,8.1845112 69.37666,7.5454252 69.144419,6.8898208 69.215015,6.2280283 c 0.193511,-0.6451838 0.732623,-1.0238015 1.215461,-1.4493568 0.111107,-0.088352 0.222216,-0.1767035 0.333325,-0.2650553 0,0 -3.520644,1.4177915 -3.520644,1.4177915 v 0 c -0.111074,0.093829 -0.222152,0.1876589 -0.333226,0.2814886 -0.595654,0.5345443 -1.022861,0.9125431 -1.139026,1.7469273 -0.0083,0.7232353 0.234389,1.3413121 0.430543,2.0301455 0.226891,0.8435969 0.427741,1.6957199 0.436795,2.5748229 -0.0013,0.857923 -0.01588,1.715246 -0.111617,2.568891 -0.08905,0.802658 -0.157001,1.63595 -0.511559,2.372355 -0.224927,0.33364 -0.452628,0.611713 -0.777184,0.856571 -0.122544,0.09245 -0.515734,0.332442 -0.381548,0.257884 0.752584,-0.418155 4.07253,-2.327417 2.240346,-1.285291 -0.917934,0.468957 -1.863656,0.863708 -2.854925,1.150869 z" />
    <path
       style="fill:none;stroke:#000000;stroke-width:0.264583px;stroke-linecap:butt;stroke-linejoin:miter;stroke-opacity:1"
       d="m 12.390184,46.645398 c 0.665144,0.324427 1.171232,0.920449 1.822086,1.275461 0.476909,0.260131 0.988428,0.45511 1.457668,0.728835 0.540189,0.09105 0.698557,0.647911 1.093252,0.911042 0.226002,0.150667 0.485889,0.242943 0.728834,0.364416 0.121473,0.06074 0.235577,0.139263 0.364418,0.182211 0.377704,0.388553 0.862514,0.06422 1.27546,0.182207 0.261169,0.07462 0.476641,0.263539 0.728834,0.364416 0.356655,0.142664 0.74223,0.208407 1.093251,0.364419 0.200114,0.08894 0.356492,0.255767 0.546626,0.364416 0.235833,0.134763 0.493002,0.229656 0.728835,0.364418 0.536326,0.306473 0.511986,0.329777 0.911043,0.728835 0.121472,0.12147 0.226986,0.261345 0.364417,0.364416 0.108648,0.08149 0.24796,0.112334 0.364417,0.182208 0.18778,0.11267 0.343301,0.283088 0.546626,0.364418 0.112784,0.04511 0.255769,-0.05432 0.364417,0 0.153651,0.07682 0.226987,0.261345 0.364417,0.364416 0.108648,0.08149 0.247961,0.112337 0.364417,0.182211 0.0394,-0.260178 0.618761,0.473242 0.728834,0.546624 0.113002,0.07533 0.242945,0.121473 0.364418,0.18221 0.242943,0.121471 0.485889,0.242943 0.728835,0.364416 0.242943,0.121473 0.485888,0.242946 0.728834,0.364416 0.242943,0.121473 0.468249,0.287777 0.728835,0.364419 6.96066,2.047253 -0.681014,-0.440577 3.644169,0.911042 0.549969,0.171866 1.093253,0.364419 1.63988,0.546627 0.182208,0.06074 0.356489,0.155045 0.546624,0.182208 0.240503,0.03436 0.491675,-0.0527 0.728834,0 0.319286,0.07095 0.609129,0.238619 0.911043,0.364418 0.426974,0.177903 0.871116,0.32199 1.275461,0.546624 0.150169,0.08343 0.202972,0.30571 0.364418,0.364419 0.526246,0.191362 1.099648,0.21708 1.639877,0.364415 0.131024,0.03574 0.238321,0.131771 0.364416,0.182208 0.178329,0.07133 0.361953,0.129445 0.546626,0.182211 0.240787,0.06879 0.500859,0.07858 0.728835,0.182208 0.445781,0.202626 0.845579,0.494355 1.275461,0.728834 1.367332,0.745819 0.07643,-0.06611 1.639877,0.911043 0.1857,0.116062 0.350755,0.266483 0.546624,0.364418 0.171788,0.08589 0.381934,0.08339 0.546626,0.182208 0.147307,0.08838 0.217112,0.276032 0.364419,0.364416 0.164692,0.09882 0.381931,0.08339 0.546624,0.182211 0.147306,0.08838 0.210767,0.287589 0.364418,0.364416 0.108649,0.05432 0.246571,-0.02946 0.364416,0 0.131757,0.03294 0.233834,0.144899 0.364419,0.182208 0.45598,0.130281 1.580578,0.279675 2.004292,0.364418 0.940951,0.188191 0.737529,0.236752 1.822088,0.546624 0.481573,0.137594 0.974474,0.232638 1.457669,0.364419 0.185296,0.05053 0.357174,0.150632 0.546624,0.182208 0.179731,0.02996 0.367956,-0.03574 0.546626,0 0.133173,0.02663 0.235577,0.139261 0.364419,0.182208 0.05762,0.01921 0.124587,-0.01921 0.182208,0 0.128841,0.04295 0.235574,0.139263 0.364416,0.18221 0.273314,0.0911 0.18221,-0.18221 0.546626,0 0.153652,0.07682 0.210765,0.287592 0.364416,0.364416 0.108649,0.05432 0.249179,-0.03841 0.364419,0 0.08149,0.02716 0.105383,0.143796 0.182208,0.182208 0.108648,0.05432 0.249179,-0.03841 0.364418,0 0.128839,0.04295 0.232662,0.14927 0.364416,0.182211 1.228871,0.307215 -1.019286,-0.662808 1.093253,0.182208 0.07975,0.0319 0.100722,0.155046 0.182208,0.182208 0.230476,0.07683 0.511538,-0.108649 0.728835,0 0.726037,0.363019 7.93e-4,0.364617 0.728834,0.546626 0.117845,0.02946 0.242943,0 0.364416,0 0.06074,0 0.127884,-0.02716 0.182208,0 0.153654,0.07682 0.201446,0.310092 0.364418,0.364416 0.11524,0.03842 0.255768,-0.05432 0.364416,0 0.05432,0.02716 -0.04295,0.139264 0,0.182208 0.0859,0.08589 0.24918,-0.03841 0.364419,0 0.128841,0.04295 0.232661,0.14927 0.364416,0.182211 0.117845,0.02946 0.249179,-0.03842 0.364418,0 0.08149,0.02716 0.100722,0.155045 0.182208,0.182208 0.172858,0.05762 0.37745,-0.06767 0.546627,0 2.251554,0.900623 -0.484103,-0.03989 1.275458,0.546626"
       id="path21" />
    <path
       style="fill:#000000;fill-opacity:1;stroke-width:0.264583"
       id="path23"
       d="m 54.426881,66.861499 c -0.407601,0.613007 -0.861023,1.193665 -1.369573,1.725755 -0.287605,0.297413 -0.569108,0.619032 -0.898724,0.872882 -0.151616,0.116765 -0.31805,0.213016 -0.473762,0.324257 -0.09166,0.0583 -0.369274,0.228867 -0.274995,0.1749 0.4347,-0.248835 0.865867,-0.503819 1.296495,-0.759637 0.133226,-0.07915 -0.270102,0.151998 -0.404241,0.229587 -0.692211,0.400399 -1.383741,0.801973 -2.074791,1.204367 -0.149942,0.08731 -0.59713,0.353719 -0.448175,0.26474 0.3804,-0.227232 0.761672,-0.453001 1.142508,-0.679503 -1.039791,0.584208 -2.08969,1.147024 -3.147613,1.697291 -0.916387,0.495525 -1.801871,1.047039 -2.712905,1.551366 -0.463981,0.25685 0.918186,-0.531132 1.371576,-0.806243 0.08531,-0.05177 -0.180009,0.08654 -0.266761,0.135855 -0.647536,0.368088 -1.290526,0.744114 -1.935789,1.116169 0.436909,-0.253648 0.882192,-0.493393 1.31073,-0.760945 0.128198,-0.08004 -0.270873,0.134218 -0.408149,0.197432 -0.664541,0.306015 -1.347298,0.574093 -2.032389,0.829853 -0.669491,0.241371 -1.337207,0.4822 -1.999523,0.741847 -0.269658,0.08133 -0.534733,0.185451 -0.812921,0.23618 -0.08047,0.01468 -0.253326,0.05698 -0.244184,-0.02432 0.0065,-0.05796 0.04492,-0.107659 0.06739,-0.161489 0.272737,-0.790308 0.657426,-1.537475 1.015288,-2.292045 0.412321,-0.838124 0.816679,-1.683184 1.124841,-2.565752 0.2045,-0.934252 0.468199,-1.853899 0.687729,-2.784946 0.116732,-0.663771 0.408768,-1.26899 0.634614,-1.89764 0.206544,-0.556392 0.36172,-1.126849 0.549709,-1.688983 0.173704,-0.557176 0.46981,-1.02716 0.881951,-1.436447 0.246928,-0.255704 0.11824,-0.133133 0.386117,-0.367665 0,0 -1.80627,0.738989 -1.80627,0.738989 v 0 c -0.260319,0.249502 -0.134578,0.122378 -0.377545,0.381059 -0.386276,0.449712 -0.681167,0.937373 -0.847886,1.511101 -0.19258,0.558197 -0.327687,1.133226 -0.547505,1.682377 -0.237601,0.627229 -0.49603,1.2465 -0.608261,1.912681 -0.205404,0.927338 -0.456581,1.844312 -0.695138,2.763205 -0.319891,0.873408 -0.708763,1.718056 -1.130839,2.546718 -0.372515,0.771265 -0.756177,1.545635 -1.023213,2.360382 -7.94e-4,0.104341 -0.03212,0.213114 -0.0021,0.313021 0.141009,0.468085 0.931579,0.01741 1.214127,-0.02733 0.278829,-0.09535 0.535954,-0.226957 0.812364,-0.32761 0.406596,-0.148061 0.824365,-0.267607 1.221944,-0.441005 1.554855,-0.566314 3.061843,-1.200195 4.443235,-2.136886 -0.465651,0.266277 -0.934194,0.527555 -1.396953,0.798833 -0.08731,0.05118 0.18192,-0.08898 0.270267,-0.138351 0.652097,-0.364432 1.294974,-0.745392 1.950865,-1.102953 0.454735,-0.247896 -0.899226,0.514155 -1.34729,0.773915 -0.254232,0.147386 1.10045,-0.619684 0.766162,-0.436129 1.054039,-0.561282 2.116003,-1.106511 3.152566,-1.700649 0.70611,-0.398767 1.413537,-0.795208 2.118328,-1.1963 0.151427,-0.08617 0.601999,-0.351084 0.450258,-0.265465 -0.400754,0.226124 -0.79856,0.457433 -1.197351,0.687007 -0.131564,0.07574 0.264001,-0.14995 0.395674,-0.225499 2.089573,-1.198923 1.37079,-0.727933 2.285098,-1.338294 0.499303,-0.352261 0.947086,-0.761035 1.343406,-1.228067 0.507343,-0.561308 0.982411,-1.156996 1.389814,-1.795235 z" />
    <path
       style="fill:#000000;fill-opacity:1;stroke-width:0.264583"
       id="path24"
       d="m 51.417992,56.728079 c 0.533112,0.230695 1.101479,0.351329 1.672815,0.439753 0.664829,0.0745 1.334995,-0.01267 1.99971,-0.05406 0.524912,-0.03283 1.050642,-0.04583 1.576451,-0.05101 0.435128,0.04202 0.939382,-0.119105 1.338815,0.08944 0.303536,0.385847 0.320099,0.89666 0.345472,1.367195 0.0021,0.0911 0.0042,0.182192 0.0063,0.27329 0,0 1.735458,-0.890389 1.735458,-0.890389 v 0 c -0.003,-0.09264 -0.0061,-0.185277 -0.0091,-0.277913 -0.03076,-0.538374 -0.08673,-1.087919 -0.426379,-1.53062 -0.06824,-0.05215 -0.125725,-0.122748 -0.204727,-0.156442 -0.263403,-0.11234 -0.896482,0.01863 -1.202467,-0.02772 -0.53266,0.0068 -1.065499,0.01664 -1.597092,0.05354 -0.654264,0.04227 -1.313198,0.127791 -1.968066,0.07977 -0.552992,-0.069 -1.108077,-0.165222 -1.618382,-0.39973 z" />
    <path
       style="fill:#000000;fill-opacity:1;stroke-width:0.264583"
       id="path25"
       d="m 58.17304,57.242696 c 0.54991,-0.114006 1.11306,-0.139795 1.672667,-0.163158 0.588092,-0.03032 1.142095,0.139589 1.686745,0.339453 0.51014,0.222112 1.010851,0.45616 1.534004,0.648914 0.734695,0.284895 1.482926,0.517496 2.245021,0.715174 1.004255,0.249907 2.029007,0.413933 3.028929,0.680201 0.661688,0.232143 1.322395,0.413036 2.024155,0.442035 1.08317,-0.01503 2.048153,-0.533887 2.977949,-1.035318 0.377086,-0.227824 0.79312,-0.383939 1.173993,-0.604234 0.627637,-0.363024 1.267489,-0.707096 1.873552,-1.105093 0.04589,-0.03014 0.06093,-0.103762 0.04883,-0.157316 -0.01648,-0.07295 -0.08418,-0.123627 -0.126275,-0.185439 -0.06791,-0.03101 -0.13289,-0.06949 -0.20374,-0.09304 -0.185999,-0.06181 -0.382998,-0.08558 -0.570148,-0.143822 -0.39828,-0.123955 -0.787784,-0.282893 -1.174544,-0.437799 -0.86564,-0.347985 -1.666041,-0.828765 -2.465718,-1.303625 -0.702733,-0.465045 -1.498362,-0.607523 -2.323626,-0.640713 -0.398518,-0.0027 -0.797076,-0.0013 -1.194081,0.03741 -0.08081,0.0079 -0.161094,0.0205 -0.241543,0.03147 -0.03281,0.0045 -0.07227,-0.0057 -0.09824,0.01487 -0.485748,0.38476 -0.950729,0.795034 -1.426096,1.192549 1.752561,-0.135099 2.341692,-0.668581 3.982498,-1.626328 0.666639,-0.522139 0.797163,-1.15902 0.913164,-1.953868 -0.08556,-0.53739 -0.461182,-0.965295 -1.03783,-0.957424 -0.114017,0.0016 -0.225915,0.03118 -0.338873,0.04678 -0.714592,0.172876 -1.396172,0.457263 -2.050188,0.789172 -0.679238,0.400926 -1.358479,0.801852 -2.03772,1.202778 -0.139798,0.08548 -0.27886,0.172164 -0.419394,0.256426 -0.142671,0.08554 -0.573744,0.337013 -0.430186,0.252963 2.447666,-1.433044 1.079773,-0.649097 0.518269,-0.339479 -0.647184,0.379735 -1.296734,0.75547 -1.941553,1.139211 -0.09376,0.0558 -0.183546,0.118065 -0.273899,0.179231 -1.17493,0.795436 2.17284,-1.132395 0.820603,-0.478895 -0.106924,0.05167 -0.215363,0.10015 -0.323043,0.150222 -0.630886,0.309652 -1.303766,0.504235 -1.940513,0.800973 -0.667893,0.341503 -1.408387,0.477383 -2.129639,0.657572 -0.580289,0.119194 -1.150167,0.278085 -1.722244,0.430612 0,0 -1.538454,1.180044 -1.538454,1.180044 v 0 c 0.575019,-0.152572 1.144153,-0.324591 1.728568,-0.439102 0.723206,-0.180907 1.471514,-0.300594 2.148623,-0.624769 0.210383,-0.09973 0.415843,-0.210566 0.631081,-0.299326 0.431125,-0.177784 0.902433,-0.256987 1.306296,-0.501838 0.921784,-0.413501 1.625565,-0.85022 2.572242,-1.407379 0.181887,-0.107051 0.713015,-0.450977 0.527992,-0.349441 -0.459807,0.252328 -0.912099,0.518118 -1.368145,0.777177 0.915466,-0.531927 1.84717,-1.032166 2.766528,-1.56137 0.144585,-0.08323 0.287285,-0.169698 0.429911,-0.256241 0.14183,-0.08606 0.56995,-0.339341 0.423431,-0.261535 -0.424076,0.225192 -0.837808,0.469352 -1.256712,0.704027 0.636526,-0.350502 1.311396,-0.629444 2.010386,-0.829046 0.60924,-0.164899 1.060728,-0.12452 1.188167,0.590206 -0.124791,0.769475 -0.305014,1.340491 -0.977051,1.802392 2.953629,-1.647756 1.389587,-0.74069 0.965338,-0.566237 -0.495131,0.203599 -1.025059,0.289234 -1.556494,0.324509 -0.572524,0.402275 -1.143939,0.806135 -1.717571,1.20683 -0.03088,0.02156 0.05387,-0.05634 0.08921,-0.06938 0.453189,-0.167277 0.968936,-0.08126 1.437645,-0.119446 0.818766,0.01339 1.559719,0.112982 2.266469,0.564052 0.818036,0.461325 1.618591,0.959916 2.490382,1.317382 0.592955,0.255944 1.203529,0.547364 1.846882,0.639249 0.0053,-0.01016 0.02598,-0.03632 0.01606,-0.0305 -0.454422,0.266808 0.928735,-0.498427 1.386536,-0.759399 0.113464,-0.06468 -0.22778,0.128 -0.344128,0.187338 -1.567609,0.799465 0.695473,-0.384241 -0.8445,0.4254 -0.905571,0.501769 -1.840793,1.060442 -2.901418,1.103876 -0.694833,-0.0045 -1.354288,-0.175496 -2.01191,-0.394608 -0.99591,-0.269721 -2.023711,-0.413551 -3.020412,-0.685199 -0.748747,-0.214051 -1.505754,-0.396121 -2.223336,-0.708134 -0.518512,-0.198511 -1.021307,-0.422994 -1.523375,-0.655769 -0.558766,-0.216056 -1.133695,-0.401257 -1.738948,-0.398114 -0.554998,0.02117 -1.110959,0.04282 -1.661972,0.116671 z" />
    <path
       style="fill:#000000;fill-opacity:1;stroke-width:0.264583"
       id="path26"
       d="m 41.933502,71.102521 c 0.538557,0.08246 1.037617,0.274545 1.527035,0.505325 0.484333,0.206555 0.965851,0.425706 1.416577,0.698804 0.378356,0.252667 0.826608,0.551847 0.958151,1.011656 -0.417391,0.567745 -0.29287,0.381685 1.580388,-0.953403 0.03299,-0.02352 -0.06943,-0.04341 -0.09738,-0.07274 -0.06284,-0.06591 -0.119507,-0.137719 -0.173295,-0.211201 -0.0776,-0.106011 -0.287252,-0.442212 -0.354703,-0.548968 -0.282887,-0.568563 -0.562784,-1.045332 -1.062299,-1.446324 -0.407948,-0.32153 -0.899501,-0.405159 -1.38897,-0.517162 -0.55277,-0.136449 -1.109012,-0.25739 -1.663443,-0.387369 -0.761836,-0.194871 -0.342572,-0.163322 -1.70144,1.103352 -0.05557,0.0518 0.144036,0.04837 0.215802,0.0733 0.308414,0.107124 0.259141,0.09126 0.581668,0.214312 0.609451,0.236784 1.186248,0.546584 1.776354,0.826101 0.496461,0.277815 1.009843,0.523959 1.519497,0.776803 0.286136,0.147466 0.57812,0.279792 0.849577,0.453284 0,0 1.650452,-1.058695 1.650452,-1.058695 v 0 c -0.276421,-0.184986 -0.575633,-0.318829 -0.872199,-0.46831 -0.514527,-0.244615 -1.026393,-0.49729 -1.52209,-0.777693 -0.595291,-0.280122 -1.184769,-0.572952 -1.789697,-0.831937 -0.04193,-0.01733 -0.755838,-0.313293 -0.768411,-0.307123 -1.788141,0.877292 -2.440135,0.914379 -1.546254,1.110792 0.555482,0.118293 1.10979,0.243996 1.660816,0.380238 0.456645,0.135811 0.949677,0.149932 1.347923,0.449268 0.509447,0.387559 0.746188,0.820637 1.036558,1.383086 0.169741,0.272624 0.331134,0.553532 0.524018,0.810887 0.04532,0.06047 0.07437,0.204118 0.144094,0.174995 1.846636,-0.771353 1.833769,-0.321318 1.773016,-1.13316 C 47.335105,71.88917 46.960529,71.515496 46.5203,71.244066 46.062497,70.968899 45.581558,70.733377 45.086981,70.531688 44.590874,70.301043 44.094706,70.089281 43.55807,69.970512 Z" />
    <path
       style="fill:#000000;fill-opacity:1;stroke-width:0.264583"
       id="path27"
       d="m 41.688289,71.357571 c 0.06101,0.0094 0.065,0.004 0.116576,0.03285 0.0042,0.0024 0.01265,0.01445 0.0094,0.01087 -0.02646,-0.02934 -0.111564,-0.06562 -0.07916,-0.08822 1.141235,-0.796047 2.227061,-1.233858 1.540494,-0.953945 -0.181084,0.03757 -0.369081,0.05258 -0.55354,0.03521 -0.01683,0.02963 -0.09236,-0.05974 -0.0655,-0.0622 0.01413,-0.0013 0.02708,0.0085 0.04082,0.01207 0.01741,0.0045 0.03506,0.008 0.05259,0.01198 -0.5418,0.320652 -1.082823,0.642618 -1.625404,0.961949 -0.01926,0.01135 0.0352,-0.02821 0.05534,-0.0379 0.02482,-0.01196 0.05159,-0.01976 0.07833,-0.0264 0.124513,-0.03094 0.231341,-0.0048 0.354296,0.02201 0.249539,0.07439 0.481613,0.197821 0.698055,0.341019 0.183161,0.122769 0.3902,0.202007 0.586161,0.301379 0.209402,0.106883 0.41134,0.227174 0.603732,0.362153 0.175823,0.123431 0.329821,0.274373 0.48968,0.4171 0.02643,0.02246 0.05155,0.04656 0.07929,0.06737 0.05014,0.0376 0.198927,0.132014 0.245681,0.164725 0.130892,0.09158 0.256757,0.191079 0.385093,0.286199 0.158414,0.118169 0.302237,0.255405 0.468318,0.363043 0.07987,0.05783 0.165217,0.107006 0.245666,0.163941 0,0 1.650344,-1.059383 1.650344,-1.059383 v 0 c -0.08756,-0.05192 -0.172109,-0.109014 -0.25917,-0.161862 -0.17457,-0.09937 -0.34865,-0.198514 -0.509755,-0.319532 -0.08519,-0.05918 -0.172894,-0.114863 -0.255772,-0.177231 -0.143762,-0.108188 -0.274868,-0.232944 -0.414523,-0.346194 -0.170431,-0.141161 -0.328999,-0.296574 -0.506473,-0.42912 -0.201338,-0.140906 -0.406593,-0.272013 -0.631259,-0.373946 -0.185846,-0.09987 -0.364421,-0.212603 -0.554143,-0.305086 -0.241636,-0.141936 -0.503973,-0.241025 -0.757516,-0.359222 -0.04647,-0.01934 -0.208976,-0.08887 -0.263519,-0.104632 -0.698334,-0.201832 -1.947609,1.044683 -1.98088,0.994997 -0.0061,0.02596 -0.01757,0.05123 -0.01836,0.0779 -0.0041,0.140602 0.09069,0.255715 0.206189,0.320905 0.0291,0.01003 0.05709,0.02421 0.08731,0.03009 0.05486,0.01069 0.152488,0.0043 0.206227,0.0031 0.104511,-0.0024 0.209055,-0.0021 0.313537,-0.0058 0.718846,0.02103 2.160886,-0.454308 1.764125,-1.160793 -0.03647,-0.06494 -0.131879,-0.07802 -0.182515,-0.126743 z" />
    <path
       style="fill:#000000;fill-opacity:1;stroke-width:0.264583"
       id="path28"
       d="m 41.032289,73.858815 c 0.128969,0.03138 0.256392,0.07498 0.377894,0.128823 0.09466,0.05658 0.04996,0.02768 0.134514,0.08607 0,0 1.638575,-1.043639 1.638575,-1.043639 v 0 c -0.09219,-0.06562 -0.04571,-0.03408 -0.139398,-0.0947 -0.0241,-0.01895 -0.0465,-0.04033 -0.07233,-0.05685 -0.09464,-0.06056 -0.213371,-0.06328 -0.304705,-0.128723 z" />
    <path
       style="fill:#000000;fill-opacity:1;stroke-width:0.264583"
       id="path29"
       d="m 42.498353,66.896889 c 0.03353,0.0013 0.06741,-0.0011 0.100582,0.004 0.107521,0.01638 0.251542,0.06655 0.348242,0.0994 0.178379,0.0606 0.351467,0.136152 0.530071,0.196088 0.115401,0.03872 0.233402,0.06921 0.350105,0.10382 0.710475,0.186742 1.430644,0.335748 2.131642,0.556826 0.170188,0.06307 0.350697,0.11498 0.499864,0.223065 0.11816,0.08561 0.213413,0.210068 0.305345,0.320561 0.04783,0.06261 0.0968,0.124362 0.143497,0.18782 0.17291,0.234968 0.143078,0.203059 0.304757,0.445606 0.106016,0.159046 0.174139,0.270647 0.308338,0.408122 0.06081,0.06229 0.130289,0.115496 0.195432,0.173247 0.310496,0.245001 0.645813,0.453437 1.0033,0.621657 0.256579,0.112474 0.483174,0.276412 0.708541,0.439986 0.02453,0.02405 0.0525,0.04502 0.07362,0.07212 0.03165,0.0406 0.0701,0.129895 0.08758,0.176895 0.01471,0.03958 0.03718,0.141595 0.06988,0.171961 0.05188,0.04818 0.117999,0.07827 0.176996,0.117404 0.362678,0.128587 0.727943,0.24897 1.090721,0.377309 0,0 1.421921,-0.959866 1.421921,-0.959866 v 0 c -0.318357,-0.116499 -0.645715,-0.222724 -0.9222,-0.426218 -0.0285,-0.02477 -0.06009,-0.04637 -0.0855,-0.0743 -0.03156,-0.03469 -0.06203,-0.11834 -0.07968,-0.154382 -0.05839,-0.119202 -0.120592,-0.237611 -0.220316,-0.328157 -0.240319,-0.163695 -0.486625,-0.32213 -0.744567,-0.456382 -0.149619,-0.06941 -0.305668,-0.12065 -0.455221,-0.189839 -0.205671,-0.09515 -0.395446,-0.218604 -0.578845,-0.350957 -0.0602,-0.05088 -0.123886,-0.09789 -0.180599,-0.152632 -0.305993,-0.295342 -0.501399,-0.68344 -0.715507,-1.044597 -0.0571,-0.09371 -0.130242,-0.227131 -0.208815,-0.309086 -0.185899,-0.193892 -0.47566,-0.243245 -0.723164,-0.304255 -0.339911,-0.07382 -0.679765,-0.147328 -1.018794,-0.225144 -0.183073,-0.04202 -0.59335,-0.135292 -0.774076,-0.185603 -0.122544,-0.03411 -0.24298,-0.07539 -0.364471,-0.113083 -0.174557,-0.0688 -0.390422,-0.150434 -0.562835,-0.230611 -0.206227,-0.0959 -0.400339,-0.214196 -0.598091,-0.32581 z" />
    <path
       style="fill:#000000;fill-opacity:1;stroke-width:0.264583"
       id="path30"
       d="m 43.845935,63.296508 c 0.76129,0.04577 1.506214,0.226592 2.237623,0.433083 0.233942,0.06944 0.43874,0.126344 0.667001,0.207656 0.07736,0.02756 0.152395,0.0613 0.229365,0.08993 0.177411,0.06598 0.256617,0.08051 0.423114,0.165817 0.05994,0.03071 0.115583,0.06917 0.173373,0.103751 0.169331,0.111493 0.320046,0.248536 0.44958,0.404423 0.11751,0.141418 0.214551,0.300207 0.325769,0.44663 0.178773,0.209392 0.381857,0.387607 0.629393,0.511641 0.175342,0.08786 0.348337,0.14601 0.532022,0.214175 0.41353,0.174059 0.859001,0.252222 1.277633,0.410969 0.07963,0.0302 0.156789,0.06653 0.235183,0.0998 0.2755,0.131069 0.536352,0.290867 0.731176,0.529878 0.08745,0.107281 0.107878,0.155562 0.171778,0.271592 0.108672,0.207566 0.175667,0.32284 0.392266,0.421701 0.212984,0.06672 0.443894,0.05289 0.665114,0.05766 0.10518,0.01008 0.215485,0.01423 0.315373,0.05336 0.09886,0.03873 0.185214,0.105667 0.267856,0.170368 0.0235,0.01889 0.04701,0.03777 0.07052,0.05666 0,0 1.635107,-1.031107 1.635107,-1.031107 v 0 c -0.02574,-0.01908 -0.05147,-0.03818 -0.0772,-0.05727 -0.137692,-0.09658 -0.04109,-0.03135 -0.191691,-0.126061 -0.04324,-0.02719 -0.18774,-0.122637 -0.234506,-0.141398 -0.04815,-0.01932 -0.183509,-0.03446 -0.23269,-0.04116 -0.202229,-0.01529 -0.405881,-0.0053 -0.607388,-0.03197 -0.03795,-0.0073 -0.08162,-0.01265 -0.116938,-0.03054 -0.109109,-0.05529 -0.182322,-0.159874 -0.254902,-0.253471 -0.165227,-0.220728 -0.345845,-0.436171 -0.574366,-0.595032 -0.0848,-0.05895 -0.36278,-0.207925 -0.4494,-0.255362 -0.230759,-0.110303 -0.244091,-0.126733 -0.486674,-0.203256 -0.346618,-0.109339 -0.708846,-0.168286 -1.04715,-0.304808 -0.191074,-0.0785 -0.298235,-0.115496 -0.475985,-0.214117 -0.216858,-0.120324 -0.401037,-0.28689 -0.566859,-0.469622 -0.253442,-0.321106 -0.48795,-0.663395 -0.832964,-0.895966 -0.178901,-0.108879 -0.212447,-0.140806 -0.412507,-0.214847 -0.401698,-0.148667 -0.835903,-0.194607 -1.248497,-0.301252 -0.343741,-0.08216 -0.566854,-0.131498 -0.908505,-0.229696 -0.141986,-0.04081 -0.282215,-0.08752 -0.423243,-0.131527 -0.229392,-0.07158 -0.461474,-0.138469 -0.67957,-0.241228 z" />
    <path
       style="fill:#000000;fill-opacity:1;stroke-width:0.264583"
       id="path31"
       d="m 41.920294,66.916098 c 0.302721,-0.09536 0.627719,-0.04028 0.933421,0.01177 0.135845,0.02323 0.264536,0.06946 0.392309,0.119123 0,0 1.58174,-1.06186 1.58174,-1.06186 v 0 c -0.143595,-0.0559 -0.287298,-0.112114 -0.441553,-0.131691 -0.294918,-0.05017 -0.590576,-0.09488 -0.887296,-0.132585 z" />
    <path
       style="fill:#000000;fill-opacity:1;stroke-width:0.264583"
       id="path32"
       d="m 42.122629,68.161828 c 0.385088,0.0323 0.75428,0.154543 1.120868,0.269393 0.195537,0.05621 0.389826,0.115615 0.567518,0.216903 0.06092,0.03472 0.215114,0.137642 0.270176,0.173876 0.260361,0.183515 0.525976,0.35927 0.790073,0.537303 0.131109,0.08742 0.261681,0.174921 0.412313,0.223758 0.234146,0.02572 0.466241,0.05978 0.696968,0.108331 0.241681,0.05024 0.313973,0.09026 0.415639,0.314187 0.100823,0.213141 0.12436,0.453433 0.208781,0.671666 0.02106,0.05443 0.05007,0.105429 0.07511,0.158142 0.09809,0.168791 0.222901,0.323117 0.38871,0.429495 0.07543,0.04839 0.147407,0.07887 0.228105,0.1166 0.113557,0.05941 0.243089,0.08428 0.35655,0.14333 0.06066,0.03157 0.0749,0.04776 0.127982,0.09102 0.08428,0.07822 0.178308,0.14456 0.267255,0.217167 0,0 0.820804,-0.51494 0.820804,-0.51494 v 0 c -0.089,-0.07139 -0.180409,-0.139642 -0.265628,-0.215659 -0.0403,-0.03527 -0.09577,-0.08694 -0.141936,-0.114533 -0.11234,-0.06715 -0.251738,-0.07815 -0.368811,-0.135085 -0.273436,-0.117248 -0.434753,-0.217083 -0.595151,-0.480256 -0.02238,-0.04866 -0.04864,-0.09572 -0.06714,-0.145989 -0.08293,-0.225264 -0.09595,-0.472943 -0.197863,-0.692391 -0.112358,-0.257548 -0.182401,-0.333894 -0.467765,-0.388001 -0.223292,-0.04829 -0.448371,-0.09219 -0.675611,-0.116954 -0.150966,-0.03156 -0.282051,-0.110641 -0.415467,-0.185761 -0.272476,-0.167532 -0.545277,-0.334748 -0.801362,-0.527063 -0.17181,-0.121436 -0.345853,-0.252143 -0.545939,-0.324104 -0.04792,-0.01722 -0.09814,-0.02725 -0.147026,-0.0415 -0.05452,-0.01587 -0.10881,-0.0326 -0.163213,-0.0489 -0.368155,-0.09612 -0.732902,-0.204634 -1.099225,-0.307398 z" />
    <path
       style="fill:#000000;fill-opacity:1;stroke-width:0.264583"
       id="path33"
       d="m 43.454095,64.655628 c 0.02347,0.0019 0.04735,7.93e-4 0.0704,0.0056 0.05399,0.01114 0.106097,0.03026 0.159977,0.04191 0.781082,0.168849 0.180279,0.01445 1.108641,0.242816 0.574358,0.141282 0.7102,0.185007 1.265471,0.342844 0.294589,0.08802 0.603744,0.174112 0.893167,0.281723 0.190709,0.07091 0.365871,0.140028 0.526021,0.267624 0.139126,0.110847 0.188513,0.207491 0.286218,0.351917 0.123465,0.218876 0.20892,0.455411 0.313571,0.683191 0.03083,0.06711 0.05539,0.137938 0.09563,0.199874 0.114839,0.176771 0.194325,0.213627 0.361886,0.342157 0.102378,0.0439 0.201541,0.09623 0.307134,0.131701 0.393692,0.132252 0.81381,0.173472 1.223179,0.225388 0.666684,0.08454 0.11271,0.01275 0.713946,0.09128 0.209236,0.04463 0.563851,0.03616 0.704342,0.231233 0.08057,0.111874 0.108559,0.245742 0.14853,0.37419 0.118377,0.440719 0.146592,0.902919 0.289528,1.336802 0.03979,0.03965 0.07249,0.088 0.119367,0.118943 0.195968,0.129381 0.532561,0.161573 0.757158,0.107394 0.05638,-0.0136 0.109206,-0.0391 0.163808,-0.05865 0.314553,-0.190952 0.629106,-0.381902 0.943658,-0.572854 0,0 -0.869439,0.347109 -0.869439,0.347109 v 0 c 0.220625,-0.118525 0.441253,-0.237051 0.661879,-0.355579 -0.05151,0.02548 -0.100552,0.0567 -0.154522,0.07644 -0.204798,0.0749 -0.503455,0.0651 -0.696997,-0.04201 -0.03689,-0.02043 -0.06488,-0.05386 -0.09731,-0.0808 -0.01876,-0.04357 -0.04038,-0.08601 -0.05631,-0.130696 -0.136215,-0.382153 -0.161851,-0.792006 -0.257122,-1.184042 -0.04994,-0.192331 -0.08866,-0.442457 -0.275801,-0.560171 -0.04985,-0.03136 -0.110826,-0.04077 -0.168207,-0.054 -0.147216,-0.03395 -0.350501,-0.04795 -0.495892,-0.06212 -0.358288,-0.03214 -0.363406,-0.03061 -0.737651,-0.07302 -0.396822,-0.04497 -0.799989,-0.08894 -1.178576,-0.225152 -0.09509,-0.03421 -0.183851,-0.08398 -0.275775,-0.125968 -0.150736,-0.118383 -0.223946,-0.155467 -0.330298,-0.313378 -0.04057,-0.06023 -0.06872,-0.127985 -0.100899,-0.193083 -0.113453,-0.229462 -0.204716,-0.468685 -0.319479,-0.697539 -0.11241,-0.165375 -0.153775,-0.256061 -0.319561,-0.377822 -0.183099,-0.13448 -0.365506,-0.191776 -0.582456,-0.256284 -0.189571,-0.05636 -0.793702,-0.202226 -0.954754,-0.241869 -0.824868,-0.215074 -1.669619,-0.40845 -2.44293,-0.776023 z" />
    <path
       style="fill:#000000;fill-opacity:1;stroke-width:0.264583"
       id="path34"
       d="m 52.428137,64.884762 c 0.03143,0.01349 0.0635,0.02559 0.0943,0.04049 0.12963,0.06268 0.252483,0.139242 0.380666,0.204793 0.116644,0.05965 0.234781,0.11635 0.351655,0.175553 0.284824,0.144132 0.575927,0.27418 0.868551,0.401453 0,0 0.759182,-0.5059 0.759182,-0.5059 v 0 c -0.2897,-0.12252 -0.575683,-0.252976 -0.851583,-0.404606 -0.265962,-0.141105 -0.532476,-0.282609 -0.781984,-0.451826 z" />
    <path
       style="fill:#000000;fill-opacity:1;stroke-width:0.264583"
       id="path35"
       d="m 55.343205,57.640598 c 0.305668,-0.01691 0.612042,-0.01728 0.918083,-0.01545 0.180459,0.0061 0.36822,0.02453 0.530918,0.110138 0.07479,0.03935 0.09528,0.06391 0.158715,0.119335 0.134171,0.132617 0.235019,0.292492 0.351663,0.439687 0,0 0.834385,-0.502047 0.834385,-0.502047 v 0 c -0.130019,-0.142277 -0.233111,-0.305948 -0.368734,-0.443367 -0.02785,-0.02664 -0.05359,-0.05567 -0.08355,-0.07991 -0.186499,-0.150918 -0.435454,-0.181165 -0.666422,-0.193805 -0.291835,0.0016 -0.584136,0.0026 -0.87553,-0.01545 z" />
    <path
       style="fill:#000000;fill-opacity:1;stroke-width:0.264583"
       id="path36"
       d="m 61.610753,56.134846 c 0.395202,-0.05495 0.788275,-0.121685 1.181295,-0.191212 1.300475,-0.2213 2.621013,-0.281683 3.937349,-0.320288 1.112121,-0.0053 2.232208,0.04982 3.298288,0.386207 0.410986,0.150817 0.600697,0.405447 0.825508,0.757218 0.153816,0.297617 0.353677,0.550024 0.606936,0.767575 0.314992,0.250992 0.639911,0.495451 0.995063,0.686904 0.312725,0.161678 0.633799,0.114022 0.963597,0.05004 0.203099,-0.05361 0.392176,-0.142775 0.579284,-0.235754 0,0 0.754658,-0.606161 0.754658,-0.606161 v 0 c -0.180361,0.0999 -0.363604,0.193715 -0.56097,0.256569 -0.310901,0.06456 -0.623067,0.143227 -0.926676,0.0039 -0.356055,-0.17562 -0.677895,-0.415145 -0.983353,-0.66725 -0.24461,-0.21286 -0.441643,-0.455475 -0.590852,-0.745165 -0.235347,-0.359429 -0.455544,-0.655336 -0.882446,-0.801008 -1.103175,-0.316634 -2.254047,-0.351165 -3.395705,-0.352279 -1.28986,0.02877 -2.585508,0.07598 -3.864803,0.25083 -0.381754,0.06062 -0.761706,0.13512 -1.147863,0.162219 z" />
    <path
       style="fill:#000000;fill-opacity:1;stroke-width:0.264583"
       id="path37"
       d="m 61.458554,56.939587 c 0.282117,-0.137703 0.576453,-0.239297 0.884369,-0.298284 0.575038,-0.111648 1.135428,0.01289 1.699247,0.124789 1.144506,0.304133 2.314829,0.482613 3.476276,0.705556 0.347697,0.06599 0.693343,0.142994 1.041712,0.205547 0.193085,0.03467 0.356836,0.06485 0.537565,0.14024 0.346516,0.263249 0.708358,0.505243 1.076007,0.738883 0.309123,0.198795 0.656738,0.320103 1.00924,0.415602 0,0 0.802016,-0.552937 0.802016,-0.552937 v 0 c -0.350364,-0.0819 -0.696947,-0.19445 -1.006999,-0.380537 -0.371835,-0.232351 -0.736164,-0.476752 -1.072153,-0.758407 -0.205962,-0.09507 -0.342551,-0.115808 -0.567743,-0.148045 -0.360878,-0.05166 -0.719598,-0.117366 -1.078963,-0.178281 -0.599964,-0.104357 -1.204087,-0.192461 -1.801529,-0.310499 -0.554543,-0.109562 -0.653793,-0.145082 -1.183801,-0.28294 -0.157465,-0.04095 -0.315058,-0.08141 -0.472586,-0.122116 -0.342445,-0.07521 -0.701881,-0.18379 -1.05296,-0.212535 -0.208446,-0.01707 -0.421888,0.02934 -0.629959,0.0325 -0.309047,0.04413 -0.604324,0.136572 -0.886857,0.270642 z" />
    <path
       style="fill:#000000;fill-opacity:1;stroke-width:0.264583"
       id="path38"
       d="m 61.964307,55.723162 c 0.855898,-0.469394 1.746271,-0.871717 2.627323,-1.290817 0.557599,-0.26483 1.127766,-0.502412 1.699916,-0.733745 0.657747,-0.229611 1.237057,-0.628788 1.803136,-1.026089 0.09535,-0.05758 0.184039,-0.125238 0.277749,-0.185274 0.04235,-0.02714 0.172831,-0.103011 0.12923,-0.07792 -1.336751,0.76917 -0.727718,0.422132 -0.428813,0.25681 0.04264,-0.02275 0.08528,-0.04552 0.127913,-0.06828 0,0 0.759307,-0.609695 0.759307,-0.609695 v 0 c -0.04364,0.02241 -0.08728,0.04481 -0.130921,0.06722 -0.552114,0.312579 -1.118307,0.604126 -1.636025,0.972767 -0.05998,0.04274 -0.23042,0.164923 -0.28929,0.203883 -0.04971,0.0329 -0.203843,0.123574 -0.151551,0.09495 1.32474,-0.725109 0.610286,-0.327194 0.293336,-0.221528 -0.587904,0.234776 -1.169384,0.488006 -1.741501,0.758965 -0.86038,0.414896 -1.730248,0.810671 -2.580211,1.246693 z" />
    <path
       style="fill:#000000;fill-opacity:1;stroke-width:0.264583"
       id="path39"
       d="m 61.143744,56.231935 c 0.699932,0.06081 1.404345,0.05049 2.106115,0.04038 1.159675,-0.02988 2.317063,-0.123187 3.464542,-0.29324 0.721624,-0.117084 1.074036,-0.360498 1.737654,-0.810231 0.03833,-0.02598 0.216794,-0.277037 0.241517,-0.310883 0.215489,-0.356886 0.356518,-0.750641 0.458361,-1.153144 0.05676,-0.23273 0.15404,-0.450318 0.20751,-0.683816 0.07819,-0.224861 0.121558,-0.462084 0.202338,-0.685546 0.07595,-0.235741 -0.161775,-0.302445 -0.348271,-0.293809 -0.125979,0.01736 -0.237792,0.07106 -0.346015,0.135771 -0.72373,0.432758 -0.788564,0.458811 -1.271598,0.818317 -0.342908,0.226988 -0.66181,0.484835 -0.952764,0.774935 -0.164889,0.173633 -0.287253,0.381085 -0.431716,0.57068 -0.06164,0.0809 -0.132863,0.154048 -0.198442,0.231796 -0.178898,0.197266 -0.362318,0.399759 -0.582092,0.553247 -0.111942,0.07818 -1.132752,0.67519 0.403527,-0.232257 -0.199938,0.107257 -0.412673,0.186129 -0.624041,0.266967 0,0 -0.756875,0.592929 -0.756875,0.592929 v 0 c 0.214254,-0.08039 0.430273,-0.157509 0.635672,-0.259316 0.775756,-0.444169 1.277303,-0.650533 1.818995,-1.301559 0.216011,-0.258834 0.395856,-0.546021 0.627774,-0.791197 0.295034,-0.283654 0.618122,-0.532445 0.956511,-0.762614 0.05257,-0.03948 0.105209,-0.07886 0.157702,-0.118446 0.05015,-0.03782 0.206441,-0.141771 0.150228,-0.113747 -0.235074,0.117187 -0.458071,0.257228 -0.689025,0.382339 -0.07616,0.04126 0.144967,-0.09666 0.224702,-0.1305 0.02912,-0.01236 0.06059,-0.01818 0.09089,-0.02728 0.05056,-0.01423 0.222986,-0.06495 0.263565,0.0043 0.01545,0.02638 -0.01344,0.105672 -0.0164,0.11729 -0.0664,0.23092 -0.128976,0.462857 -0.199903,0.692473 -0.05882,0.228023 -0.149452,0.44651 -0.197143,0.677841 -0.09943,0.393089 -0.239155,0.778489 -0.469467,1.115502 -0.300262,0.380055 -0.578569,0.474866 0.418378,-0.07119 0.06332,-0.03468 -0.126325,0.07077 -0.193323,0.09767 -0.187439,0.07527 -0.382511,0.111813 -0.578342,0.157805 -1.149271,0.196101 -2.311461,0.310338 -3.47807,0.320257 -0.673555,0.0013 -1.350015,-0.0031 -2.020207,-0.07773 z" />
  </g>
</svg>
